<svg width="99" height="102" viewBox="0 0 99 102" fill="none" xmlns="http://www.w3.org/2000/svg">
<path d="M97.9183 87.2935C97.9183 87.2935 94.4241 96.1216 77.7675 97.5213C77.7675 97.5213 82.6311 93.3279 77.7675 87.6406C72.9039 81.9532 66.1633 82.4179 66.1633 82.4179C66.1633 82.4179 77.7675 72.0666 83.6581 71.5078C89.5546 70.9491 94.79 75.5189 96.0118 77.3834C97.2336 79.2419 99.0044 85.4997 97.9183 87.2935Z" fill="url(#paint0_linear_397_2795)"/>
<path opacity="0.45" d="M97.9182 87.2935C99.0043 85.5056 97.2336 79.2419 96.0177 77.3775C95.2976 76.2718 93.155 74.225 90.31 72.8488C85.0569 73.2016 77.2067 74.6838 75.9731 74.919C75.9435 74.9367 75.914 74.9543 75.8845 74.9778C76.7758 75.2425 85.3402 78.0009 86.8453 85.8643C88.4331 94.163 77.7674 97.5213 77.7674 97.5213C94.424 96.1157 97.9182 87.2935 97.9182 87.2935Z" fill="url(#paint1_linear_397_2795)"/>
<path d="M40.777 99.9739C40.777 99.9739 53.8744 89.9049 65.3546 84.3117C76.8348 78.7184 86.562 76.854 91.0537 78.4714C95.5454 80.0888 97.6644 83.1942 97.9182 87.2995C97.9182 87.2995 100.958 82.4061 95.4451 71.4255C89.9323 60.4449 83.9413 51.9933 77.4546 51.9933C70.9678 51.9933 42.8959 55.5986 30.5481 73.2487C18.1943 90.8989 23.1878 94.8806 26.5581 96.9921C29.9224 99.1035 36.2852 102.085 40.777 99.9739Z" fill="url(#paint2_linear_397_2795)"/>
<path opacity="0.45" d="M74.2152 64.7912C52.3409 68.8494 26.4293 90.199 23.0354 93.0574C23.7319 95.0865 25.2606 96.1804 26.5591 96.992C29.9294 99.1035 36.2922 102.091 40.7839 99.9739C40.7839 99.9739 53.8814 89.9049 65.3616 84.3117C76.8418 78.7184 86.5689 76.854 91.0607 78.4714C95.5524 80.0888 97.6714 83.1942 97.9252 87.2994C97.9252 87.2994 100.965 82.4061 95.4521 71.4255C94.2657 69.067 93.0616 66.8321 91.828 64.7677C87.3363 63.6855 81.5637 63.4268 74.2152 64.7912Z" fill="url(#paint3_linear_397_2795)"/>
<path d="M74.9284 35.8899L57.6166 5.83584C53.1367 -1.94528 41.928 -1.94528 37.4422 5.83584C37.4422 5.83584 20.6085 35.0665 20.3429 35.5429C11.5601 50.7817 -4.18162 82.4061 1.03611 92.8692C4.44771 99.7034 16.9726 101.391 25.2419 101.738C29.6451 101.932 32.8501 101.738 32.8501 101.738C39.1834 101.268 40.9187 99.9739 40.9187 99.9739C26.1391 100.591 28.1223 83.1648 38.5577 64.2266C48.9991 45.3002 74.9284 35.8899 74.9284 35.8899Z" fill="url(#paint4_linear_397_2795)"/>
<path opacity="0.45" d="M38.5577 64.2266C48.9932 45.3002 74.9283 35.8899 74.9283 35.8899L63.2357 15.599C58.921 17.7987 53.5852 20.8805 47.5057 25.1269C31.1029 36.5839 12.2211 71.9489 14.2102 87.1406C16.1994 102.332 40.9187 99.968 40.9187 99.968C26.139 100.591 28.1222 83.1589 38.5577 64.2266Z" fill="url(#paint5_linear_397_2795)"/>
<defs>
<linearGradient id="paint0_linear_397_2795" x1="80.4749" y1="97.233" x2="83.5722" y2="73.8589" gradientUnits="userSpaceOnUse">
<stop stop-color="#00C4FF"/>
<stop offset="1" stop-color="#8338EC"/>
</linearGradient>
<linearGradient id="paint1_linear_397_2795" x1="85.4657" y1="96.5699" x2="87.2" y2="79.0402" gradientUnits="userSpaceOnUse">
<stop stop-color="#00C4FF"/>
<stop offset="1" stop-color="#8338EC"/>
</linearGradient>
<linearGradient id="paint2_linear_397_2795" x1="89.1403" y1="63.5333" x2="37.3377" y2="94.5257" gradientUnits="userSpaceOnUse">
<stop stop-color="#24FEC1"/>
<stop offset="1" stop-color="#00D4FF"/>
</linearGradient>
<linearGradient id="paint3_linear_397_2795" x1="101.556" y1="67.4953" x2="39.6403" y2="97.3101" gradientUnits="userSpaceOnUse">
<stop stop-color="#24FEC1"/>
<stop offset="1" stop-color="#00D4FF"/>
</linearGradient>
<linearGradient id="paint4_linear_397_2795" x1="60.2407" y1="2.99318" x2="13.3309" y2="115.829" gradientUnits="userSpaceOnUse">
<stop stop-color="#00D6E1"/>
<stop offset="1" stop-color="#8338EC"/>
</linearGradient>
<linearGradient id="paint5_linear_397_2795" x1="63.786" y1="19.3217" x2="25.8041" y2="90.1381" gradientUnits="userSpaceOnUse">
<stop stop-color="#00D6E1"/>
<stop offset="1" stop-color="#8338EC" stop-opacity="0"/>
</linearGradient>
</defs>
</svg>
