<svg width="90" height="90" viewBox="0 0 90 90" fill="none" xmlns="http://www.w3.org/2000/svg">
<path d="M89.6901 77.1564C89.6901 77.1564 86.4895 84.9593 71.2326 86.1965C71.2326 86.1965 75.6875 82.49 71.2326 77.4631C66.7777 72.4362 60.6036 72.8469 60.6036 72.8469C60.6036 72.8469 71.2326 63.6977 76.6282 63.2038C82.0292 62.71 86.8247 66.7492 87.9438 68.3971C89.063 70.0398 90.6849 75.5709 89.6901 77.1564Z" fill="url(#paint0_linear_726_1402)"/>
<path opacity="0.45" d="M89.6899 77.1564C90.6847 75.5761 89.0628 70.0398 87.9491 68.3919C87.2895 67.4145 85.3269 65.6055 82.721 64.3891C77.9093 64.701 70.7188 66.011 69.5888 66.2189C69.5618 66.2345 69.5348 66.2501 69.5078 66.2709C70.3241 66.5048 78.1688 68.9429 79.5475 75.8932C81.0018 83.2282 71.2324 86.1965 71.2324 86.1965C86.4893 84.9541 89.6899 77.1564 89.6899 77.1564Z" fill="url(#paint1_linear_726_1402)"/>
<path d="M68.632 31.7221L52.775 5.15814C48.6715 -1.71938 38.4047 -1.71938 34.2958 5.15814C34.2958 5.15814 18.8767 30.9944 18.6334 31.4154C10.5887 44.8846 -3.83023 72.8365 0.949045 82.0845C4.07396 88.1251 15.5464 89.6171 23.1208 89.9238C27.154 90.0953 30.0897 89.9238 30.0897 89.9238C35.8907 89.5079 37.4802 88.3642 37.4802 88.3642C23.9425 88.9101 25.7591 73.5071 35.3177 56.7682C44.8816 40.0396 68.632 31.7221 68.632 31.7221Z" fill="url(#paint2_linear_726_1402)"/>
<path opacity="0.45" d="M35.3177 56.7682C44.8762 40.0396 68.632 31.7221 68.632 31.7221L57.9219 13.7875C53.9698 15.7317 49.0824 18.4557 43.5138 22.209C28.4894 32.3355 11.1942 63.5937 13.0162 77.0213C14.8382 90.4488 37.4802 88.359 37.4802 88.359C23.9426 88.9101 25.7591 73.5019 35.3177 56.7682Z" fill="url(#paint3_linear_726_1402)"/>
<defs>
<linearGradient id="paint0_linear_726_1402" x1="73.7125" y1="85.9416" x2="76.3573" y2="65.2573" gradientUnits="userSpaceOnUse">
<stop stopColor="#00C4FF"/>
<stop offset="1" stopColor="#8338EC"/>
</linearGradient>
<linearGradient id="paint1_linear_726_1402" x1="78.2838" y1="85.3555" x2="79.764" y2="69.8512" gradientUnits="userSpaceOnUse">
<stop stopColor="#00C4FF"/>
<stop offset="1" stopColor="#8338EC"/>
</linearGradient>
<linearGradient id="paint2_linear_726_1402" x1="55.1785" y1="2.64559" x2="14.759" y2="103.4" gradientUnits="userSpaceOnUse">
<stop stopColor="#00D6E1"/>
<stop offset="1" stopColor="#8338EC"/>
</linearGradient>
<linearGradient id="paint3_linear_726_1402" x1="58.426" y1="17.0779" x2="25.5251" y2="80.6484" gradientUnits="userSpaceOnUse">
<stop stopColor="#00D6E1"/>
<stop offset="1" stopColor="#8338EC" stopOpacity="0"/>
</linearGradient>
</defs>
</svg>