<svg width="40" height="40" viewBox="0 0 40 40" fill="none" xmlns="http://www.w3.org/2000/svg">
<path d="M33.7369 29.8375C33.7369 29.8375 32.7412 32.2651 27.9946 32.6501C27.9946 32.6501 29.3806 31.497 27.9946 29.933C26.6086 28.3691 24.6878 28.4969 24.6878 28.4969C24.6878 28.4969 27.9946 25.6504 29.6731 25.4968C31.3536 25.3431 32.8454 26.5997 33.1937 27.1125C33.5418 27.6235 34.0464 29.3443 33.7369 29.8375Z" fill="url(#paint0_linear_736_1389)"/>
<path opacity="0.45" d="M33.7369 29.8375C34.0464 29.3459 33.5418 27.6235 33.1953 27.1109C32.9901 26.8068 32.3795 26.2439 31.5688 25.8654C30.0719 25.9626 27.8348 26.37 27.4832 26.4348C27.4749 26.4396 27.4664 26.4446 27.4579 26.451C27.712 26.5237 30.1525 27.2822 30.5814 29.4445C31.0339 31.7265 27.9946 32.6501 27.9946 32.6501C32.7412 32.2634 33.7369 29.8375 33.7369 29.8375Z" fill="url(#paint1_linear_736_1389)"/>
<path d="M27.1855 15.7025L22.2522 7.43809C20.9756 5.29843 17.7815 5.29843 16.5031 7.43809C16.5031 7.43809 11.7061 15.476 11.6304 15.607C9.12757 19.7974 4.64169 28.4937 6.12857 31.3708C7.10077 33.25 10.67 33.7142 13.0264 33.8096C14.2812 33.863 15.1945 33.8096 15.1945 33.8096C16.9993 33.6802 17.4938 33.3244 17.4938 33.3244C13.2821 33.4943 13.8473 28.7022 16.821 23.4945C19.7965 18.2901 27.1855 15.7025 27.1855 15.7025Z" fill="url(#paint2_linear_736_1389)"/>
<path opacity="0.45" d="M16.8211 23.4945C19.7948 18.2901 27.1855 15.7025 27.1855 15.7025L23.8535 10.1228C22.624 10.7277 21.1034 11.5751 19.371 12.7428C14.6967 15.8933 9.31598 25.6181 9.88282 29.7955C10.4497 33.9729 17.4939 33.3228 17.4939 33.3228C13.2821 33.4943 13.8473 28.7006 16.8211 23.4945Z" fill="url(#paint3_linear_736_1389)"/>
<defs>
<linearGradient id="paint0_linear_736_1389" x1="28.766" y1="32.5707" x2="29.589" y2="26.1357" gradientUnits="userSpaceOnUse">
<stop stop-color="#00C4FF"/>
<stop offset="1" stop-color="#8338EC"/>
</linearGradient>
<linearGradient id="paint1_linear_736_1389" x1="30.1882" y1="32.3884" x2="30.6488" y2="27.5648" gradientUnits="userSpaceOnUse">
<stop stop-color="#00C4FF"/>
<stop offset="1" stop-color="#8338EC"/>
</linearGradient>
<linearGradient id="paint2_linear_736_1389" x1="22.9999" y1="6.65642" x2="10.425" y2="38.0023" gradientUnits="userSpaceOnUse">
<stop stop-color="#00D6E1"/>
<stop offset="1" stop-color="#8338EC"/>
</linearGradient>
<linearGradient id="paint3_linear_736_1389" x1="24.0103" y1="11.1465" x2="13.7745" y2="30.924" gradientUnits="userSpaceOnUse">
<stop stop-color="#00D6E1"/>
<stop offset="1" stop-color="#8338EC" stop-opacity="0"/>
</linearGradient>
</defs>
</svg>
