<svg width="192" height="192" viewBox="0 0 192 192" fill="none" xmlns="http://www.w3.org/2000/svg">
  <g transform="translate(28,28) scale(0.7)">
    <path d="M191.339 164.6C191.339 164.6 184.511 181.246 151.963 183.886C151.963 183.886 161.467 175.979 151.963 165.255C142.459 154.531 129.288 155.407 129.288 155.407C129.288 155.407 151.963 135.888 163.473 134.835C174.996 133.781 185.226 142.398 187.614 145.914C190.001 149.418 193.461 161.218 191.339 164.6Z" fill="url(#paint0_linear)"/>
    <path opacity="0.45" d="M191.339 164.6C193.461 161.229 190.001 149.418 187.625 145.903C186.218 143.818 182.031 139.958 176.472 137.363C166.207 138.029 150.867 140.823 148.456 141.267C148.399 141.3 148.341 141.334 148.283 141.378C150.025 141.877 166.76 147.078 169.701 161.905C172.804 177.553 151.963 183.886 151.963 183.886C184.511 181.235 191.339 164.6 191.339 164.6Z" fill="url(#paint1_linear)"/>
    <path d="M146.415 67.6739L112.587 11.004C103.833 -3.66801 81.9301 -3.66801 73.1645 11.004C73.1645 11.004 40.2704 66.1213 39.7514 67.0196C22.5892 95.7537 -8.17116 155.385 2.02463 175.114C8.6911 188 33.1656 191.183 49.3243 191.837C57.9285 192.203 64.1913 191.837 64.1913 191.837C76.5669 190.95 79.9578 188.51 79.9578 188.51C51.0774 189.675 54.9528 156.815 75.3443 121.105C95.7474 85.4179 146.415 67.6739 146.415 67.6739Z" fill="url(#paint2_linear)"/>
    <path opacity="0.45" d="M75.3444 121.105C95.736 85.4178 146.415 67.6739 146.415 67.6739L123.567 29.4134C115.136 33.5611 104.709 39.3722 92.8295 47.3792C60.7773 68.9825 23.881 135.667 27.7679 164.312C31.6548 192.957 79.9579 188.499 79.9579 188.499C51.0775 189.675 54.9528 156.804 75.3444 121.105Z" fill="url(#paint3_linear)"/>
  </g>
  <defs>
    <linearGradient id="paint0_linear" x1="157.253" y1="183.342" x2="162.896" y2="139.216" gradientUnits="userSpaceOnUse">
      <stop stop-color="#00C4FF"/>
      <stop offset="1" stop-color="#8338EC"/>
    </linearGradient>
    <linearGradient id="paint1_linear" x1="167.005" y1="182.092" x2="170.163" y2="149.016" gradientUnits="userSpaceOnUse">
      <stop stop-color="#00C4FF"/>
      <stop offset="1" stop-color="#8338EC"/>
    </linearGradient>
    <linearGradient id="paint2_linear" x1="117.714" y1="5.64392" x2="31.4859" y2="220.587" gradientUnits="userSpaceOnUse">
      <stop stop-color="#00D6E1"/>
      <stop offset="1" stop-color="#8338EC"/>
    </linearGradient>
    <linearGradient id="paint3_linear" x1="124.642" y1="36.4329" x2="54.4536" y2="172.05" gradientUnits="userSpaceOnUse">
      <stop stop-color="#00D6E1"/>
      <stop offset="1" stop-color="#8338EC" stop-opacity="0"/>
    </linearGradient>
  </defs>
</svg>