<svg width="512" height="512" viewBox="0 0 512 512" fill="none" xmlns="http://www.w3.org/2000/svg">
  <g transform="translate(76,76) scale(0.7)">
    <path d="M507.63 438.934C507.63 438.934 489.515 483.324 403.164 490.362C403.164 490.362 428.378 469.277 403.164 440.679C377.95 412.082 343.005 414.418 343.005 414.418C343.005 414.418 403.164 362.369 433.702 359.56C464.271 356.75 491.413 379.729 497.747 389.103C504.081 398.448 513.261 429.914 507.63 438.934Z" fill="url(#paint0_linear)"/>
    <path opacity="0.45" d="M507.63 438.934C513.26 429.944 504.08 398.448 497.777 389.074C494.043 383.514 482.936 373.222 468.187 366.302C440.953 368.077 400.256 375.529 393.861 376.712C393.708 376.801 393.555 376.889 393.402 377.008C398.022 378.338 442.422 392.208 450.225 431.748C458.456 473.476 403.163 490.362 403.163 490.362C489.515 483.294 507.63 438.934 507.63 438.934Z" fill="url(#paint1_linear)"/>
    <path d="M388.445 180.464L298.697 29.3441C275.472 -9.78137 217.364 -9.78137 194.109 29.3441C194.109 29.3441 106.839 176.323 105.462 178.719C59.9302 255.343 -21.6784 414.359 5.37143 466.97C23.0579 501.334 87.9898 509.821 130.86 511.566C153.687 512.542 170.302 511.566 170.302 511.566C203.135 509.2 212.132 502.694 212.132 502.694C135.511 505.799 145.792 418.174 199.892 322.948C254.022 227.781 388.445 180.464 388.445 180.464Z" fill="url(#paint2_linear)"/>
    <path opacity="0.45" d="M199.892 322.948C253.992 227.781 388.445 180.464 388.445 180.464L327.828 78.4358C305.46 89.4962 277.798 104.993 246.281 126.345C161.245 183.953 63.3575 361.778 73.6695 438.165C83.9815 514.553 212.132 502.665 212.132 502.665C135.511 505.8 145.792 418.144 199.892 322.948Z" fill="url(#paint3_linear)"/>
  </g>
  <defs>
    <linearGradient id="paint0_linear" x1="417.2" y1="488.912" x2="432.321" y2="371.261" gradientUnits="userSpaceOnUse">
      <stop stop-color="#00C4FF"/>
      <stop offset="1" stop-color="#8338EC"/>
    </linearGradient>
    <linearGradient id="paint1_linear" x1="443.073" y1="485.578" x2="451.536" y2="397.384" gradientUnits="userSpaceOnUse">
      <stop stop-color="#00C4FF"/>
      <stop offset="1" stop-color="#8338EC"/>
    </linearGradient>
    <linearGradient id="paint2_linear" x1="312.301" y1="15.0504" x2="81.5073" y2="587.415" gradientUnits="userSpaceOnUse">
      <stop stop-color="#00D6E1"/>
      <stop offset="1" stop-color="#8338EC"/>
    </linearGradient>
    <linearGradient id="paint3_linear" x1="330.681" y1="97.1545" x2="142.959" y2="458.015" gradientUnits="userSpaceOnUse">
      <stop stop-color="#00D6E1"/>
      <stop offset="1" stop-color="#8338EC" stop-opacity="0"/>
    </linearGradient>
  </defs>
</svg>